Coordinates
version=1
nRows=14
nColumns=24
inDegrees=yes

Units are S.I. units (second, meters, Newtons, ...)
Angles are in degrees.

endheader
time	pelvis_tilt	pelvis_list	pelvis_rotation	pelvis_tx	pelvis_ty	pelvis_tz	hip_flexion_r	hip_adduction_r	hip_rotation_r	knee_angle_r	ankle_angle_r	subtalar_angle_r	mtp_angle_r	hip_flexion_l	hip_adduction_l	hip_rotation_l	knee_angle_l	ankle_angle_l	subtalar_angle_l	mtp_angle_l	lumbar_extension	lumbar_bending	lumbar_rotation
      3.83000000	     -4.47111122	      0.44882013	      5.58738578	     -1.49447203	     -0.02253543	      0.47330471	     32.89129141	     -4.13635630	     -6.28279863	    -43.63048197	     -4.07843381	      8.79322570	     23.72038280	      0.64671245	      6.60514185	     18.66888295	    -16.04520144	      9.46160855	     10.10628981	      9.54627098	      4.03818341	     -0.20155296	     -5.62601204
      3.83500000	     -4.35498327	      0.30546299	      5.90873798	     -1.48777948	     -0.02252084	      0.47326689	     32.95872463	     -4.11784756	     -6.46050558	    -41.86165741	     -3.66126940	      9.30216375	     23.22591653	     -0.16965476	      6.27108784	     18.84516401	    -15.54875849	      9.64831842	     10.40797933	      9.59340082	      3.82847130	     -0.10582157	     -6.10842217
      3.84000000	     -4.21824740	      0.17900796	      6.18808186	     -1.48111183	     -0.02256155	      0.47336824	     32.99325056	     -4.07535976	     -6.54426454	    -40.09333351	     -3.26515497	      9.82947321	     22.55911445	     -0.99949217	      5.93609002	     18.96714462	    -15.05914771	      9.84056703	     10.75091460	      9.66348765	      3.57839971	     -0.03731052	     -6.57974027
      3.84500000	     -4.16429700	      0.02715836	      6.46877198	     -1.47435113	     -0.02276470	      0.47340213	     33.08189293	     -4.03822159	     -6.66606132	    -38.28204450	     -2.91033829	     10.33030291	     22.10178708	     -1.72084434	      5.58799679	     19.07124975	    -14.60562070	     10.03490385	     11.07660159	      9.76935724	      3.44474784	      0.06986368	     -6.97169014
      3.85000000	     -4.00900383	     -0.09261432	      6.74442476	     -1.46766966	     -0.02293852	      0.47358939	     33.03242181	     -3.97966129	     -6.65641226	    -36.46261563	     -2.51603421	     10.76435548	     21.40349982	     -2.52404176	      5.24566771	     19.10057511	    -14.18938572	     10.22733694	     11.49189391	      9.91196695	      3.16702326	      0.13016072	     -7.40329131
      3.85500000	     -3.87291915	     -0.19440135	      6.96329534	     -1.46098284	     -0.02321002	      0.47386288	     33.00495677	     -3.90351112	     -6.53297240	    -34.67869609	     -2.18013614	     11.18495826	     20.49211148	     -3.30563746	      4.91735637	     19.08262023	    -13.77450354	     10.43498987	     11.94632457	     10.08423265	      2.90711341	      0.18028160	     -7.79508784
      3.86000000	     -3.82104548	     -0.34358593	      7.19310088	     -1.45417329	     -0.02363681	      0.47407680	     33.03240171	     -3.81320281	     -6.45310789	    -32.86351573	     -1.92213637	     11.51730426	     19.82210104	     -3.97948702	      4.55715964	     19.09063309	    -13.39648273	     10.64329731	     12.33019055	     10.25580313	      2.77290079	      0.28448452	     -8.13052348
      3.86500000	     -3.68210558	     -0.46303306	      7.40356750	     -1.44741943	     -0.02404306	      0.47443863	     32.94714612	     -3.69698536	     -6.21297047	    -31.06886640	     -1.67647047	     11.70768070	     18.91553181	     -4.72623912	      4.20295396	     19.02132037	    -13.04870130	     10.85733183	     12.82500104	     10.47989987	      2.51609698	      0.34770205	     -8.48920687
      3.87000000	     -3.56308006	     -0.54330922	      7.59024100	     -1.44065080	     -0.02457430	      0.47488091	     32.87510808	     -3.59463736	     -5.85326139	    -29.33268177	     -1.35832527	     11.79917242	     17.74892064	     -5.42331810	      3.89656203	     18.84700857	    -12.76097929	     11.06795663	     13.35519585	     10.72443939	      2.27181675	      0.36582588	     -8.79396375
      3.87500000	     -3.46802617	     -0.62122403	      7.74259785	     -1.43385437	     -0.02518854	      0.47536440	     32.82943014	     -3.48665754	     -5.41674748	    -27.65631594	     -1.11153998	     11.87029920	     16.47442392	     -6.09392414	      3.59519342	     18.67910007	    -12.48325492	     11.29632515	     13.91473789	     10.96697382	      2.05707986	      0.38612001	     -9.07426736
      3.88000000	     -3.39473745	     -0.74019441	      7.92607687	     -1.42695178	     -0.02587196	      0.47582337	     32.77122245	     -3.35715896	     -4.98033695	    -25.98510792	     -0.94399409	     11.72115208	     15.28307273	     -6.71807832	      3.25510339	     18.54083677	    -12.25158950	     11.52401326	     14.44158586	     11.20291400	      1.88929705	      0.44598271	     -9.36357984
      3.88500000	     -3.40709511	     -0.85431573	      8.21958247	     -1.42014146	     -0.02667144	      0.47616381	     32.78517929	     -3.31763823	     -4.60211781	    -24.34060769	     -0.95458199	     11.38965630	     14.40644958	     -7.19212641	      2.94344308	     18.59652418	    -12.12410460	     11.71248721	     14.85476656	     11.40549270	      1.79874619	      0.47608999	     -9.79637980
      3.89000000	     -3.28265047	     -0.98496767	      8.39834576	     -1.41312654	     -0.02739140	      0.47670950	     32.63247343	     -3.15167018	     -4.00809736	    -22.76102655	     -0.91261646	     10.85054713	     13.06406969	     -7.83844878	      2.57392146	     18.38197190	    -11.95473861	     11.94414114	     15.48417841	     11.70743459	      1.58476818	      0.55233376	    -10.08136739
      3.89500000	     -3.20972556	     -1.07000920	      8.49368463	     -1.40597462	     -0.02828496	      0.47737484	     32.57853166	     -3.01193757	     -3.38495229	    -21.40266316	     -0.54422666	     10.54172464	     11.06663805	     -8.42677234	      2.26603391	     17.96276849	    -11.82545940	     12.23899562	     16.25150688	     11.96435209	      1.44377213	      0.57489241	    -10.24721887
